# Blender 4.1.1
# www.blender.org
mtllib firstToSecondMonoRoadConnection.mtl
o Cube.001
v -1.000000 1.702416 2.310303
v -1.000000 1.549948 2.258923
v -1.000000 3.361771 -2.905870
v -1.000000 3.209302 -2.957250
v 1.000000 1.702416 2.310303
v 1.000000 1.549948 2.258923
v 1.000000 3.361771 -2.905870
v 1.000000 3.209302 -2.957250
v 0.926084 3.361288 -2.904438
v 0.926084 3.372841 -2.900544
v 0.926085 1.702931 2.308776
v 0.926085 1.714484 2.312669
v 0.813652 3.361288 -2.904438
v 0.813652 3.372841 -2.900544
v 0.813652 1.702931 2.308776
v 0.813652 1.714484 2.312669
v -0.807865 3.361288 -2.904438
v -0.807865 3.372841 -2.900544
v -0.807865 1.702931 2.308776
v -0.807865 1.714484 2.312669
v -0.920297 3.361288 -2.904438
v -0.920297 3.372841 -2.900544
v -0.920297 1.702931 2.308776
v -0.920297 1.714484 2.312669
vn -0.0000 0.9529 0.3031
vn -0.0000 0.3193 -0.9476
vn 1.0000 -0.0000 -0.0000
vn -0.0000 -0.9529 -0.3031
vn -1.0000 -0.0000 -0.0000
vn -0.0000 -0.3193 0.9476
vt 0.625000 0.500000
vt 0.875000 0.500000
vt 0.875000 0.750000
vt 0.625000 0.750000
vt 0.375000 0.750000
vt 0.625000 1.000000
vt 0.375000 1.000000
vt 0.375000 0.000000
vt 0.625000 0.000000
vt 0.625000 0.250000
vt 0.375000 0.250000
vt 0.125000 0.500000
vt 0.375000 0.500000
vt 0.125000 0.750000
vt 0.000000 0.000000
s 0
usemtl Material.001
f 1/1/1 5/2/1 7/3/1 3/4/1
f 4/5/2 3/4/2 7/6/2 8/7/2
f 8/8/3 7/9/3 5/10/3 6/11/3
f 6/12/4 2/13/4 4/5/4 8/14/4
f 2/13/5 1/1/5 3/4/5 4/5/5
f 6/11/6 5/10/6 1/1/6 2/13/6
f 9/15/3 10/15/3 12/15/3 11/15/3
f 11/15/6 12/15/6 16/15/6 15/15/6
f 15/15/5 16/15/5 14/15/5 13/15/5
f 13/15/2 14/15/2 10/15/2 9/15/2
f 11/15/4 15/15/4 13/15/4 9/15/4
f 16/15/1 12/15/1 10/15/1 14/15/1
f 17/15/3 18/15/3 20/15/3 19/15/3
f 19/15/6 20/15/6 24/15/6 23/15/6
f 23/15/5 24/15/5 22/15/5 21/15/5
f 21/15/2 22/15/2 18/15/2 17/15/2
f 19/15/4 23/15/4 21/15/4 17/15/4
f 24/15/1 20/15/1 18/15/1 22/15/1
o Куб.002
v 0.661565 0.178764 -1.161453
v 0.661565 2.739647 -1.161453
v 0.661565 0.178764 -1.354757
v 0.661565 2.739647 -1.354757
v 0.856309 0.178764 -1.161453
v 0.856309 2.739647 -1.161453
v 0.856309 0.178764 -1.354757
v 0.856309 2.739647 -1.354757
v 0.578914 -0.055129 -1.063599
v 0.578914 0.178764 -1.063599
v 0.578914 -0.055129 -1.458603
v 0.578914 0.178764 -1.458603
v 0.948585 -0.055129 -1.063599
v 0.948585 0.178764 -1.063599
v 0.948585 -0.055129 -1.458603
v 0.948585 0.178764 -1.458603
v -0.874173 0.178764 -1.161453
v -0.874173 2.739647 -1.161453
v -0.874173 0.178764 -1.354757
v -0.874173 2.739647 -1.354757
v -0.679429 0.178764 -1.161453
v -0.679429 2.739647 -1.161453
v -0.679429 0.178764 -1.354757
v -0.679429 2.739647 -1.354757
v -0.956824 -0.055129 -1.063599
v -0.956824 0.178764 -1.063599
v -0.956824 -0.055129 -1.458603
v -0.956824 0.178764 -1.458603
v -0.587153 -0.055129 -1.063599
v -0.587153 0.178764 -1.063599
v -0.587153 -0.055129 -1.458603
v -0.587153 0.178764 -1.458603
v -0.679430 1.379752 -1.164549
v 0.831937 1.379752 -1.164549
v -0.679430 1.507273 -1.164549
v 0.831937 1.507273 -1.164549
v -0.679430 1.379752 -1.344722
v 0.831937 1.379752 -1.344722
v -0.679430 1.507273 -1.344722
v 0.831937 1.507273 -1.344722
vn -1.0000 -0.0000 -0.0000
vn -0.0000 -0.0000 -1.0000
vn 1.0000 -0.0000 -0.0000
vn -0.0000 -0.0000 1.0000
vn -0.0000 -1.0000 -0.0000
vn -0.0000 1.0000 -0.0000
vt 0.375000 0.000000
vt 0.625000 0.000000
vt 0.625000 0.250000
vt 0.375000 0.250000
vt 0.625000 0.500000
vt 0.375000 0.500000
vt 0.625000 0.750000
vt 0.375000 0.750000
vt 0.625000 1.000000
vt 0.375000 1.000000
vt 0.125000 0.500000
vt 0.125000 0.750000
vt 0.875000 0.500000
vt 0.875000 0.750000
s 0
f 25/16/7 26/17/7 28/18/7 27/19/7
f 27/19/8 28/18/8 32/20/8 31/21/8
f 31/21/9 32/20/9 30/22/9 29/23/9
f 29/23/10 30/22/10 26/24/10 25/25/10
f 27/26/11 31/21/11 29/23/11 25/27/11
f 32/20/12 28/28/12 26/29/12 30/22/12
f 33/16/7 34/17/7 36/18/7 35/19/7
f 35/19/8 36/18/8 40/20/8 39/21/8
f 39/21/9 40/20/9 38/22/9 37/23/9
f 37/23/10 38/22/10 34/24/10 33/25/10
f 35/26/11 39/21/11 37/23/11 33/27/11
f 40/20/12 36/28/12 34/29/12 38/22/12
f 41/16/7 42/17/7 44/18/7 43/19/7
f 43/19/8 44/18/8 48/20/8 47/21/8
f 47/21/9 48/20/9 46/22/9 45/23/9
f 45/23/10 46/22/10 42/24/10 41/25/10
f 43/26/11 47/21/11 45/23/11 41/27/11
f 48/20/12 44/28/12 42/29/12 46/22/12
f 49/16/7 50/17/7 52/18/7 51/19/7
f 51/19/8 52/18/8 56/20/8 55/21/8
f 55/21/9 56/20/9 54/22/9 53/23/9
f 53/23/10 54/22/10 50/24/10 49/25/10
f 51/26/11 55/21/11 53/23/11 49/27/11
f 56/20/12 52/28/12 50/29/12 54/22/12
f 57/16/10 58/17/10 60/18/10 59/19/10
f 59/19/12 60/18/12 64/20/12 63/21/12
f 63/21/8 64/20/8 62/22/8 61/23/8
f 61/23/11 62/22/11 58/24/11 57/25/11
f 59/26/7 63/21/7 61/23/7 57/27/7
f 64/20/9 60/28/9 58/29/9 62/22/9
o Куб.001
v 0.661565 0.178764 0.827384
v 0.661565 2.157413 0.827384
v 0.661565 0.178764 0.634081
v 0.661565 2.157413 0.634081
v 0.856309 0.178764 0.827384
v 0.856309 2.157413 0.827384
v 0.856309 0.178764 0.634081
v 0.856309 2.157413 0.634081
v 0.578914 -0.055129 0.925238
v 0.578914 0.178764 0.925238
v 0.578914 -0.055129 0.530235
v 0.578914 0.178764 0.530235
v 0.948585 -0.055129 0.925238
v 0.948585 0.178764 0.925238
v 0.948585 -0.055129 0.530235
v 0.948585 0.178764 0.530235
v -0.874173 0.178764 0.827384
v -0.874173 2.157413 0.827384
v -0.874173 0.178764 0.634081
v -0.874173 2.157413 0.634081
v -0.679429 0.178764 0.827384
v -0.679429 2.157413 0.827384
v -0.679429 0.178764 0.634081
v -0.679429 2.157413 0.634081
v -0.956824 -0.055129 0.925238
v -0.956824 0.178764 0.925238
v -0.956824 -0.055129 0.530235
v -0.956824 0.178764 0.530235
v -0.587153 -0.055129 0.925238
v -0.587153 0.178764 0.925238
v -0.587153 -0.055129 0.530235
v -0.587153 0.178764 0.530235
v -0.679430 1.379752 0.824288
v 0.831937 1.379752 0.824288
v -0.679430 1.507273 0.824288
v 0.831937 1.507273 0.824288
v -0.679430 1.379752 0.644115
v 0.831937 1.379752 0.644115
v -0.679430 1.507273 0.644115
v 0.831937 1.507273 0.644115
vn -1.0000 -0.0000 -0.0000
vn -0.0000 -0.0000 -1.0000
vn 1.0000 -0.0000 -0.0000
vn -0.0000 -0.0000 1.0000
vn -0.0000 -1.0000 -0.0000
vn -0.0000 1.0000 -0.0000
vt 0.375000 0.000000
vt 0.625000 0.000000
vt 0.625000 0.250000
vt 0.375000 0.250000
vt 0.625000 0.500000
vt 0.375000 0.500000
vt 0.625000 0.750000
vt 0.375000 0.750000
vt 0.625000 1.000000
vt 0.375000 1.000000
vt 0.125000 0.500000
vt 0.125000 0.750000
vt 0.875000 0.500000
vt 0.875000 0.750000
s 0
f 65/30/13 66/31/13 68/32/13 67/33/13
f 67/33/14 68/32/14 72/34/14 71/35/14
f 71/35/15 72/34/15 70/36/15 69/37/15
f 69/37/16 70/36/16 66/38/16 65/39/16
f 67/40/17 71/35/17 69/37/17 65/41/17
f 72/34/18 68/42/18 66/43/18 70/36/18
f 73/30/13 74/31/13 76/32/13 75/33/13
f 75/33/14 76/32/14 80/34/14 79/35/14
f 79/35/15 80/34/15 78/36/15 77/37/15
f 77/37/16 78/36/16 74/38/16 73/39/16
f 75/40/17 79/35/17 77/37/17 73/41/17
f 80/34/18 76/42/18 74/43/18 78/36/18
f 81/30/13 82/31/13 84/32/13 83/33/13
f 83/33/14 84/32/14 88/34/14 87/35/14
f 87/35/15 88/34/15 86/36/15 85/37/15
f 85/37/16 86/36/16 82/38/16 81/39/16
f 83/40/17 87/35/17 85/37/17 81/41/17
f 88/34/18 84/42/18 82/43/18 86/36/18
f 89/30/13 90/31/13 92/32/13 91/33/13
f 91/33/14 92/32/14 96/34/14 95/35/14
f 95/35/15 96/34/15 94/36/15 93/37/15
f 93/37/16 94/36/16 90/38/16 89/39/16
f 91/40/17 95/35/17 93/37/17 89/41/17
f 96/34/18 92/42/18 90/43/18 94/36/18
f 97/30/16 98/31/16 100/32/16 99/33/16
f 99/33/18 100/32/18 104/34/18 103/35/18
f 103/35/14 104/34/14 102/36/14 101/37/14
f 101/37/17 102/36/17 98/38/17 97/39/17
f 99/40/13 103/35/13 101/37/13 97/41/13
f 104/34/15 100/42/15 98/43/15 102/36/15
