# Blender 4.1.1
# www.blender.org
mtllib zeroToFirstMonoRoadConnection.mtl
o Cube.001
v -1.000000 0.086347 2.310303
v -1.000000 -0.066121 2.258923
v -1.000000 1.745702 -2.905870
v -1.000000 1.593233 -2.957250
v 1.000000 0.086347 2.310303
v 1.000000 -0.066121 2.258923
v 1.000000 1.745702 -2.905870
v 1.000000 1.593233 -2.957250
v 0.926084 1.745219 -2.904438
v 0.926084 1.756772 -2.900544
v 0.926085 0.086862 2.308776
v 0.926085 0.098415 2.312669
v 0.813652 1.745219 -2.904438
v 0.813652 1.756772 -2.900544
v 0.813652 0.086862 2.308776
v 0.813652 0.098415 2.312669
v -0.807865 1.745219 -2.904438
v -0.807865 1.756772 -2.900544
v -0.807865 0.086862 2.308776
v -0.807865 0.098415 2.312669
v -0.920297 1.745219 -2.904438
v -0.920297 1.756772 -2.900544
v -0.920297 0.086862 2.308776
v -0.920297 0.098415 2.312669
vn -0.0000 0.9529 0.3031
vn -0.0000 0.3193 -0.9476
vn 1.0000 -0.0000 -0.0000
vn -0.0000 -0.9529 -0.3031
vn -1.0000 -0.0000 -0.0000
vn -0.0000 -0.3193 0.9476
vt 0.625000 0.500000
vt 0.875000 0.500000
vt 0.875000 0.750000
vt 0.625000 0.750000
vt 0.375000 0.750000
vt 0.625000 1.000000
vt 0.375000 1.000000
vt 0.375000 0.000000
vt 0.625000 0.000000
vt 0.625000 0.250000
vt 0.375000 0.250000
vt 0.125000 0.500000
vt 0.375000 0.500000
vt 0.125000 0.750000
vt 0.000000 0.000000
s 0
usemtl Material.001
f 1/1/1 5/2/1 7/3/1 3/4/1
f 4/5/2 3/4/2 7/6/2 8/7/2
f 8/8/3 7/9/3 5/10/3 6/11/3
f 6/12/4 2/13/4 4/5/4 8/14/4
f 2/13/5 1/1/5 3/4/5 4/5/5
f 6/11/6 5/10/6 1/1/6 2/13/6
f 9/15/3 10/15/3 12/15/3 11/15/3
f 11/15/6 12/15/6 16/15/6 15/15/6
f 15/15/5 16/15/5 14/15/5 13/15/5
f 13/15/2 14/15/2 10/15/2 9/15/2
f 11/15/4 15/15/4 13/15/4 9/15/4
f 16/15/1 12/15/1 10/15/1 14/15/1
f 17/15/3 18/15/3 20/15/3 19/15/3
f 19/15/6 20/15/6 24/15/6 23/15/6
f 23/15/5 24/15/5 22/15/5 21/15/5
f 21/15/2 22/15/2 18/15/2 17/15/2
f 19/15/4 23/15/4 21/15/4 17/15/4
f 24/15/1 20/15/1 18/15/1 22/15/1
o Куб.002
v 0.661565 0.178764 -1.161453
v 0.661565 1.150385 -1.161453
v 0.661565 0.178764 -1.354757
v 0.661565 1.150385 -1.354757
v 0.856309 0.178764 -1.161453
v 0.856309 1.150385 -1.161453
v 0.856309 0.178764 -1.354757
v 0.856309 1.150385 -1.354757
v 0.578914 -0.055129 -1.063599
v 0.578914 0.178764 -1.063599
v 0.578914 -0.055129 -1.458603
v 0.578914 0.178764 -1.458603
v 0.948585 -0.055129 -1.063599
v 0.948585 0.178764 -1.063599
v 0.948585 -0.055129 -1.458603
v 0.948585 0.178764 -1.458603
v -0.874173 0.178764 -1.161453
v -0.874173 1.150385 -1.161453
v -0.874173 0.178764 -1.354757
v -0.874173 1.150385 -1.354757
v -0.679429 0.178764 -1.161453
v -0.679429 1.150385 -1.161453
v -0.679429 0.178764 -1.354757
v -0.679429 1.150385 -1.354757
v -0.956824 -0.055129 -1.063599
v -0.956824 0.178764 -1.063599
v -0.956824 -0.055129 -1.458603
v -0.956824 0.178764 -1.458603
v -0.587153 -0.055129 -1.063599
v -0.587153 0.178764 -1.063599
v -0.587153 -0.055129 -1.458603
v -0.587153 0.178764 -1.458603
v -0.679430 0.593220 -1.164549
v 0.831937 0.593220 -1.164549
v -0.679430 0.720742 -1.164549
v 0.831937 0.720742 -1.164549
v -0.679430 0.593220 -1.344722
v 0.831937 0.593220 -1.344722
v -0.679430 0.720742 -1.344722
v 0.831937 0.720742 -1.344722
vn -1.0000 -0.0000 -0.0000
vn -0.0000 -0.0000 -1.0000
vn 1.0000 -0.0000 -0.0000
vn -0.0000 -0.0000 1.0000
vn -0.0000 -1.0000 -0.0000
vn -0.0000 1.0000 -0.0000
vt 0.375000 0.000000
vt 0.625000 0.000000
vt 0.625000 0.250000
vt 0.375000 0.250000
vt 0.625000 0.500000
vt 0.375000 0.500000
vt 0.625000 0.750000
vt 0.375000 0.750000
vt 0.625000 1.000000
vt 0.375000 1.000000
vt 0.125000 0.500000
vt 0.125000 0.750000
vt 0.875000 0.500000
vt 0.875000 0.750000
s 0
f 25/16/7 26/17/7 28/18/7 27/19/7
f 27/19/8 28/18/8 32/20/8 31/21/8
f 31/21/9 32/20/9 30/22/9 29/23/9
f 29/23/10 30/22/10 26/24/10 25/25/10
f 27/26/11 31/21/11 29/23/11 25/27/11
f 32/20/12 28/28/12 26/29/12 30/22/12
f 33/16/7 34/17/7 36/18/7 35/19/7
f 35/19/8 36/18/8 40/20/8 39/21/8
f 39/21/9 40/20/9 38/22/9 37/23/9
f 37/23/10 38/22/10 34/24/10 33/25/10
f 35/26/11 39/21/11 37/23/11 33/27/11
f 40/20/12 36/28/12 34/29/12 38/22/12
f 41/16/7 42/17/7 44/18/7 43/19/7
f 43/19/8 44/18/8 48/20/8 47/21/8
f 47/21/9 48/20/9 46/22/9 45/23/9
f 45/23/10 46/22/10 42/24/10 41/25/10
f 43/26/11 47/21/11 45/23/11 41/27/11
f 48/20/12 44/28/12 42/29/12 46/22/12
f 49/16/7 50/17/7 52/18/7 51/19/7
f 51/19/8 52/18/8 56/20/8 55/21/8
f 55/21/9 56/20/9 54/22/9 53/23/9
f 53/23/10 54/22/10 50/24/10 49/25/10
f 51/26/11 55/21/11 53/23/11 49/27/11
f 56/20/12 52/28/12 50/29/12 54/22/12
f 57/16/10 58/17/10 60/18/10 59/19/10
f 59/19/12 60/18/12 64/20/12 63/21/12
f 63/21/8 64/20/8 62/22/8 61/23/8
f 61/23/11 62/22/11 58/24/11 57/25/11
f 59/26/7 63/21/7 61/23/7 57/27/7
f 64/20/9 60/28/9 58/29/9 62/22/9
